<?xml version="1.0" encoding="UTF-8" standalone="no"?>
<!-- Created with Inkscape (http://www.inkscape.org/) -->

<svg
   xmlns:dc="http://purl.org/dc/elements/1.1/"
   xmlns:cc="http://creativecommons.org/ns#"
   xmlns:rdf="http://www.w3.org/1999/02/22-rdf-syntax-ns#"
   xmlns:svg="http://www.w3.org/2000/svg"
   xmlns="http://www.w3.org/2000/svg"
   xmlns:sodipodi="http://sodipodi.sourceforge.net/DTD/sodipodi-0.dtd"
   xmlns:inkscape="http://www.inkscape.org/namespaces/inkscape"
   width="43.473392mm"
   height="43.473392mm"
   viewBox="0 0 43.473391 43.473391"
   version="1.1"
   id="svg8"
   inkscape:version="0.92.1 r15371"
   sodipodi:docname="LiberTEM logo icon.svg"
   style="enable-background:new"
   inkscape:export-filename="C:\Users\weber\Documents\LiberTEM\LiberTEM\corporatedesign\logo\LiberTEM logo icon-512-white.png"
   inkscape:export-xdpi="299.14389"
   inkscape:export-ydpi="299.14389">
  <defs
     id="defs2">
    <filter
       inkscape:collect="always"
       style="color-interpolation-filters:sRGB"
       id="filter868">
      <feBlend
         inkscape:collect="always"
         mode="screen"
         in2="BackgroundImage"
         id="feBlend870" />
    </filter>
    <filter
       inkscape:collect="always"
       style="color-interpolation-filters:sRGB"
       id="filter872">
      <feBlend
         inkscape:collect="always"
         mode="screen"
         in2="BackgroundImage"
         id="feBlend874" />
    </filter>
    <filter
       inkscape:collect="always"
       style="color-interpolation-filters:sRGB"
       id="filter919">
      <feBlend
         inkscape:collect="always"
         mode="screen"
         in2="BackgroundImage"
         id="feBlend921" />
    </filter>
  </defs>
  <sodipodi:namedview
     id="base"
     pagecolor="#ffffff"
     bordercolor="#666666"
     borderopacity="1.0"
     inkscape:pageopacity="1"
     inkscape:pageshadow="2"
     inkscape:zoom="2.8"
     inkscape:cx="59.97852"
     inkscape:cy="79.345779"
     inkscape:document-units="mm"
     inkscape:current-layer="layer4"
     showgrid="false"
     showguides="true"
     inkscape:guide-bbox="true"
     inkscape:window-width="1842"
     inkscape:window-height="1051"
     inkscape:window-x="2391"
     inkscape:window-y="-9"
     inkscape:window-maximized="1"
     fit-margin-left="1"
     fit-margin-top="1"
     fit-margin-bottom="1"
     fit-margin-right="1"
     inkscape:snap-bbox="true"
     inkscape:snap-page="false"
     inkscape:pagecheckerboard="true" />
  <metadata
     id="metadata5">
    <rdf:RDF>
      <cc:Work
         rdf:about="">
        <dc:format>image/svg+xml</dc:format>
        <dc:type
           rdf:resource="http://purl.org/dc/dcmitype/StillImage" />
        <dc:title></dc:title>
      </cc:Work>
    </rdf:RDF>
  </metadata>
  <g
     inkscape:groupmode="layer"
     id="layer4"
     inkscape:label="Base"
     style="display:inline"
     transform="translate(-6.7219048,-0.10621452)">
    <g
       aria-label="LiberTEM"
       style="font-style:normal;font-variant:normal;font-weight:normal;font-stretch:normal;font-size:11.90625px;line-height:125%;font-family:'Open Sans';-inkscape-font-specification:'Open Sans';text-align:start;letter-spacing:0px;word-spacing:0px;text-anchor:start;display:inline;fill:#004578;fill-opacity:1;stroke:none;stroke-width:0.26458332px;stroke-linecap:butt;stroke-linejoin:miter;stroke-opacity:1;filter:url(#filter868);enable-background:new"
       id="text890">
      <path
         d="M 74.994669,30.230555 H 61.919842 q -0.30868,0 -0.573264,-0.110243 -0.264583,-0.110244 -0.463021,-0.297657 -0.187413,-0.198437 -0.297656,-0.463021 -0.110243,-0.264583 -0.110243,-0.573263 V 14.4217 h 2.86632 v 12.942535 h 11.652691 z"
         style="font-style:normal;font-variant:normal;font-weight:bold;font-stretch:normal;font-size:22.57777786px;font-family:Audiowide;-inkscape-font-specification:'Audiowide Bold';text-align:start;text-anchor:start;fill:#004578;fill-opacity:1;stroke-width:0.26458332px"
         id="path4516"
         inkscape:connector-curvature="0" />
      <path
         d="m 79.691022,15.865884 h -2.866319 v -2.590711 h 2.866319 z m 0,14.364671 H 76.824703 V 18.31328 h 2.866319 z"
         style="font-style:normal;font-variant:normal;font-weight:bold;font-stretch:normal;font-size:22.57777786px;font-family:Audiowide;-inkscape-font-specification:'Audiowide Bold';text-align:start;text-anchor:start;fill:#004578;fill-opacity:1;stroke-width:0.26458332px"
         id="path4518"
         inkscape:connector-curvature="0" />
      <path
         d="m 95.566023,26.206683 q 0,0.407899 -0.09922,0.859896 -0.08819,0.451996 -0.286632,0.903993 -0.198438,0.440972 -0.518143,0.848871 -0.30868,0.4079 -0.760677,0.727605 -0.440972,0.30868 -1.02526,0.496093 -0.584288,0.187414 -1.322917,0.187414 h -5.170399 q -0.4079,0 -0.859896,-0.08819 -0.451997,-0.09922 -0.903993,-0.297656 -0.440972,-0.198438 -0.848872,-0.507118 -0.407899,-0.319705 -0.727604,-0.760677 -0.30868,-0.451997 -0.496094,-1.036285 -0.187413,-0.595312 -0.187413,-1.333941 v -12.93151 h 2.86632 v 12.93151 q 0,0.529167 0.330729,0.848872 0.330729,0.30868 0.826823,0.30868 h 5.170399 q 0.540191,0 0.837847,-0.319705 0.308681,-0.319705 0.308681,-0.837847 v -3.880556 q 0,-0.540191 -0.319705,-0.837847 -0.319705,-0.30868 -0.826823,-0.30868 h -5.170399 v -2.86632 h 5.170399 q 0.407899,0 0.859896,0.09922 0.451996,0.08819 0.892969,0.286632 0.451996,0.198437 0.859895,0.518142 0.4079,0.308681 0.71658,0.760677 0.308681,0.440973 0.496094,1.025261 0.187413,0.584288 0.187413,1.322916 z"
         style="font-style:normal;font-variant:normal;font-weight:bold;font-stretch:normal;font-size:22.57777786px;font-family:Audiowide;-inkscape-font-specification:'Audiowide Bold';text-align:start;text-anchor:start;fill:#004578;fill-opacity:1;stroke-width:0.26458332px"
         id="path4520"
         inkscape:connector-curvature="0" />
      <path
         d="m 110.85673,22.259982 q 0,0.595312 -0.20946,1.289843 -0.20946,0.683507 -0.6835,1.27882 -0.46302,0.584288 -1.2237,0.981163 -0.74965,0.396875 -1.83004,0.396875 h -5.1704 V 23.48368 h 5.1704 q 0.58429,0 0.904,-0.352778 0.3197,-0.363802 0.3197,-0.892969 0,-0.56224 -0.3638,-0.881944 -0.35278,-0.319705 -0.8599,-0.319705 h -5.1704 q -0.58428,0 -0.90399,0.363802 -0.3197,0.352778 -0.3197,0.881944 v 4.001823 q 0,0.573264 0.35277,0.892969 0.36381,0.319705 0.89297,0.319705 h 5.14835 v 2.734028 h -5.1704 q -0.59531,0 -1.28984,-0.209462 -0.683507,-0.209462 -1.278819,-0.672483 -0.584288,-0.474045 -0.981163,-1.223698 -0.396875,-0.760677 -0.396875,-1.841059 v -4.023871 q 0,-0.595313 0.209462,-1.27882 0.209461,-0.694531 0.672482,-1.278819 0.474045,-0.595313 1.223698,-0.992188 0.760675,-0.396875 1.841055,-0.396875 h 5.1704 q 0.59532,0 1.27882,0.209462 0.69453,0.209462 1.27882,0.683507 0.59531,0.463021 0.99219,1.223698 0.39687,0.749653 0.39687,1.830035 z"
         style="font-style:normal;font-variant:normal;font-weight:bold;font-stretch:normal;font-size:22.57777786px;font-family:Audiowide;-inkscape-font-specification:'Audiowide Bold';text-align:start;text-anchor:start;fill:#004578;fill-opacity:1;stroke-width:0.26458332px"
         id="path4522"
         inkscape:connector-curvature="0" />
      <path
         d="m 123.23703,21.1796 h -6.44922 q -0.58429,0 -0.88194,0.297656 -0.29766,0.286632 -0.29766,0.848871 v 7.904428 h -2.86632 v -7.904428 q 0,-0.738628 0.18741,-1.322916 0.18742,-0.584288 0.4961,-1.025261 0.3197,-0.451996 0.7276,-0.760677 0.4079,-0.319705 0.84887,-0.518142 0.452,-0.198438 0.904,-0.286632 0.46302,-0.09922 0.85989,-0.09922 h 6.47127 z"
         style="font-style:normal;font-variant:normal;font-weight:bold;font-stretch:normal;font-size:22.57777786px;font-family:Audiowide;-inkscape-font-specification:'Audiowide Bold';text-align:start;text-anchor:start;fill:#004578;fill-opacity:1;stroke-width:0.26458332px"
         id="path4524"
         inkscape:connector-curvature="0" />
      <path
         d="m 139.71836,17.28802 h -6.31692 v 12.942535 h -2.86632 V 17.28802 h -6.32795 V 14.4217 h 15.51119 z"
         style="font-style:normal;font-variant:normal;font-weight:bold;font-stretch:normal;font-size:22.57777786px;font-family:Audiowide;-inkscape-font-specification:'Audiowide Bold';text-align:start;text-anchor:start;fill:#004578;fill-opacity:1;stroke-width:0.26458332px"
         id="path4526"
         inkscape:connector-curvature="0" />
      <path
         d="m 154.83269,23.770312 h -9.05096 v -2.888369 h 9.05096 z m 1.28984,6.460243 h -10.3408 q -0.59531,0 -1.30087,-0.209462 -0.70555,-0.209462 -1.31189,-0.683507 -0.59531,-0.48507 -1.00321,-1.245747 -0.39688,-0.771701 -0.39688,-1.885156 V 15.865884 q 0,-0.297656 0.11025,-0.562239 0.11024,-0.264584 0.29765,-0.463021 0.19844,-0.198438 0.46303,-0.308681 0.26458,-0.110243 0.57326,-0.110243 h 12.90946 v 2.86632 H 144.6352 v 8.918663 q 0,0.56224 0.29766,0.859896 0.29766,0.297656 0.87092,0.297656 h 10.31875 z"
         style="font-style:normal;font-variant:normal;font-weight:bold;font-stretch:normal;font-size:22.57777786px;font-family:Audiowide;-inkscape-font-specification:'Audiowide Bold';text-align:start;text-anchor:start;fill:#004578;fill-opacity:1;stroke-width:0.26458332px"
         id="path4528"
         inkscape:connector-curvature="0" />
      <path
         d="m 177.30022,30.230555 h -2.88836 v -9.414757 l -5.08221,8.940711 q -0.18741,0.341754 -0.52916,0.518143 -0.33073,0.176389 -0.71658,0.176389 -0.37483,0 -0.70556,-0.176389 -0.31971,-0.176389 -0.50712,-0.518143 l -5.10425,-8.940711 v 9.414757 h -2.86632 V 15.645398 q 0,-0.496093 0.28663,-0.881944 0.29766,-0.385851 0.7717,-0.518143 0.23151,-0.05512 0.46302,-0.03307 0.23151,0.01102 0.44098,0.09922 0.22048,0.07717 0.39687,0.231511 0.17639,0.143316 0.29766,0.352777 l 6.52639,11.344011 6.52638,-11.344011 q 0.25356,-0.418923 0.69454,-0.595312 0.45199,-0.176389 0.93706,-0.05512 0.46302,0.132292 0.76068,0.518143 0.29765,0.385851 0.29765,0.881944 z"
         style="font-style:normal;font-variant:normal;font-weight:bold;font-stretch:normal;font-size:22.57777786px;font-family:Audiowide;-inkscape-font-specification:'Audiowide Bold';text-align:start;text-anchor:start;fill:#004578;fill-opacity:1;stroke-width:0.26458332px"
         id="path4530"
         inkscape:connector-curvature="0" />
    </g>
    <circle
       style="opacity:1;fill:#005b9e;fill-opacity:1;stroke:none;stroke-width:1.20000005;stroke-linecap:round;stroke-linejoin:round;stroke-miterlimit:4;stroke-dasharray:none;stroke-opacity:1"
       id="path879"
       cx="28.458601"
       cy="21.842911"
       r="20.736696" />
  </g>
  <g
     inkscape:groupmode="layer"
     id="layer3"
     inkscape:label="B"
     style="display:inline;filter:url(#filter919)"
     transform="translate(-29.370604,-23.768147)">
    <g
       id="g876">
      <circle
         r="4.5"
         cy="40.061932"
         cx="51.1073"
         id="circle836"
         style="display:inline;opacity:1;fill:none;fill-opacity:1;stroke:#6969ff;stroke-width:2.5;stroke-linecap:butt;stroke-linejoin:round;stroke-miterlimit:4;stroke-dasharray:none;stroke-opacity:1" />
      <circle
         r="9.5"
         style="display:inline;opacity:1;fill:none;fill-opacity:1;stroke:#6969ff;stroke-width:2.5;stroke-linecap:butt;stroke-linejoin:round;stroke-miterlimit:4;stroke-dasharray:none;stroke-opacity:1"
         id="circle838"
         cx="51.1073"
         cy="40.061932" />
      <circle
         r="1.25"
         style="display:inline;opacity:1;fill:#6969ff;fill-opacity:1;stroke:none;stroke-width:2.5;stroke-linecap:butt;stroke-linejoin:round;stroke-miterlimit:4;stroke-dasharray:none;stroke-opacity:1"
         id="circle840"
         cx="51.1073"
         cy="40.061932" />
    </g>
  </g>
  <g
     inkscape:groupmode="layer"
     id="layer2"
     inkscape:label="G"
     style="display:inline;opacity:0.97000002;filter:url(#filter872)"
     transform="translate(-29.370604,-23.768147)">
    <g
       id="g882">
      <circle
         style="display:inline;opacity:1;fill:none;fill-opacity:1;stroke:#0f90bf;stroke-width:2.5;stroke-linecap:butt;stroke-linejoin:round;stroke-miterlimit:4;stroke-dasharray:none;stroke-opacity:1"
         id="circle826"
         cx="55.862076"
         cy="48.296585"
         r="4.5" />
      <circle
         cy="48.296585"
         cx="55.862076"
         id="circle828"
         style="display:inline;opacity:1;fill:none;fill-opacity:1;stroke:#0f90bf;stroke-width:2.5;stroke-linecap:butt;stroke-linejoin:round;stroke-miterlimit:4;stroke-dasharray:none;stroke-opacity:1"
         r="9.5" />
      <circle
         r="1.25"
         cy="48.296585"
         cx="55.862076"
         id="circle830"
         style="display:inline;opacity:1;fill:#0f90bf;fill-opacity:1;stroke:none;stroke-width:2.5;stroke-linecap:butt;stroke-linejoin:round;stroke-miterlimit:4;stroke-dasharray:none;stroke-opacity:1" />
    </g>
  </g>
  <g
     inkscape:label="R"
     inkscape:groupmode="layer"
     id="layer1"
     style="display:inline;filter:url(#filter868)"
     transform="translate(-29.370604,-23.768147)">
    <text
       xml:space="preserve"
       style="font-style:normal;font-variant:normal;font-weight:normal;font-stretch:normal;font-size:11.90625px;line-height:125%;font-family:'Open Sans';-inkscape-font-specification:'Open Sans';letter-spacing:0px;word-spacing:0px;fill:#000000;fill-opacity:1;stroke:none;stroke-width:0.26458332px;stroke-linecap:butt;stroke-linejoin:miter;stroke-opacity:1"
       x="82.020836"
       y="34.306545"
       id="text900"><tspan
         sodipodi:role="line"
         x="82.020836"
         y="44.856068"
         style="stroke-width:0.26458332px"
         id="tspan906" /></text>
    <g
       id="g888">
      <circle
         r="4.5"
         cy="48.296585"
         cx="46.35252"
         id="path815"
         style="display:inline;opacity:1;fill:none;fill-opacity:1;stroke:#9a45ff;stroke-width:2.5;stroke-linecap:butt;stroke-linejoin:round;stroke-miterlimit:4;stroke-dasharray:none;stroke-opacity:1" />
      <circle
         r="9.5"
         style="display:inline;opacity:1;fill:none;fill-opacity:1;stroke:#9a45ff;stroke-width:2.5;stroke-linecap:butt;stroke-linejoin:round;stroke-miterlimit:4;stroke-dasharray:none;stroke-opacity:1"
         id="circle817"
         cx="46.35252"
         cy="48.296585" />
      <circle
         style="display:inline;opacity:1;fill:#9a45ff;fill-opacity:1;stroke:none;stroke-width:1.20000005;stroke-linecap:butt;stroke-linejoin:round;stroke-miterlimit:4;stroke-dasharray:none;stroke-opacity:1"
         id="circle819"
         cx="46.35252"
         cy="48.296585"
         r="1.25" />
    </g>
  </g>
</svg>
