<!DOCTYPE svg PUBLIC "-//W3C//DTD SVG 20010904//EN" "http://www.w3.org/TR/2001/REC-SVG-20010904/DTD/svg10.dtd">
<svg version="1.0" xmlns="http://www.w3.org/2000/svg" width="200px" height="200px" viewBox="0 0 2000 2000" preserveAspectRatio="xMidYMid meet">
<g id="layer101" fill="#005b9e" stroke="none">
 <path d="M770 1926 c-86 -24 -148 -47 -185 -68 -11 -6 -44 -25 -74 -41 -29 -16 -61 -37 -71 -46 -10 -9 -45 -38 -77 -66 -74 -63 -140 -141 -176 -208 -15 -29 -34 -61 -40 -72 -20 -32 -54 -124 -73 -195 -26 -94 -26 -369 -1 -460 27 -97 56 -166 109 -255 132 -224 319 -364 588 -441 97 -28 365 -26 470 3 249 69 468 237 584 448 16 28 31 55 35 60 13 19 50 120 68 185 14 50 18 103 18 230 0 127 -4 180 -18 230 -79 288 -276 526 -527 636 -19 8 -44 19 -55 25 -74 36 -165 51 -325 55 -151 4 -172 2 -250 -20z m145 -736 c-5 -8 -11 -8 -17 -2 -6 6 -7 16 -3 22 5 8 11 8 17 2 6 -6 7 -16 3 -22z m101 -201 c10 -17 -13 -36 -27 -22 -12 12 -4 33 11 33 5 0 12 -5 16 -11z"/>
 </g>
<g id="layer102" fill="#0fb5e5" stroke="none">
 <path d="M1071 1599 c-30 -10 -58 -23 -61 -29 -3 -5 -34 1 -73 15 -118 43 -268 31 -392 -32 -16 -9 -54 -36 -83 -61 -81 -68 -132 -156 -151 -259 -36 -194 24 -368 165 -481 37 -30 42 -39 48 -88 16 -134 126 -281 265 -350 l76 -39 135 0 135 0 76 39 c139 69 249 216 265 350 5 40 12 57 24 61 21 7 116 102 135 136 53 94 75 173 75 263 0 68 -15 150 -37 201 -38 89 -138 197 -221 239 -114 58 -275 73 -381 35z m-221 -88 c34 -9 32 -20 -12 -71 -21 -23 -38 -46 -38 -50 0 -4 -22 -10 -50 -13 -93 -11 -156 -55 -197 -139 -30 -59 -31 -151 -3 -217 l21 -47 -26 -57 c-15 -31 -30 -57 -35 -57 -5 0 -22 17 -39 38 -100 127 -98 343 4 468 92 112 260 177 375 145z m463 -17 c115 -30 214 -116 257 -224 30 -75 30 -204 0 -279 -23 -59 -66 -121 -84 -121 -17 0 -62 110 -48 119 22 13 42 81 42 142 0 137 -97 242 -235 256 -50 5 -58 10 -95 54 l-41 48 33 10 c50 14 104 13 171 -5z m-264 -85 c41 -41 50 -59 31 -59 -5 0 -27 -17 -47 -37 l-38 -38 -42 41 -41 40 41 46 c23 26 45 47 48 47 4 1 25 -18 48 -40z m-314 -188 c-3 -55 -6 -62 -49 -101 -25 -23 -50 -39 -56 -35 -5 3 -10 24 -10 45 0 28 9 50 33 82 26 34 67 67 84 68 1 0 1 -27 -2 -59z m564 33 c14 -9 37 -33 49 -54 21 -38 30 -104 15 -113 -5 -3 -29 14 -54 37 -40 36 -47 48 -53 94 -7 57 -2 62 43 36z m-418 -27 c-13 -13 -31 0 -24 19 4 11 8 12 20 3 9 -8 10 -16 4 -22z m275 12 c3 -6 2 -15 -2 -19 -12 -12 -38 5 -30 19 9 14 23 14 32 0z m-241 -49 c-5 -8 -11 -8 -17 -2 -6 6 -7 16 -3 22 5 8 11 8 17 2 6 -6 7 -16 3 -22z m20 -70 c10 -16 -13 -75 -39 -99 -20 -19 -25 -20 -35 -7 -7 8 -15 30 -18 49 -5 31 -2 37 23 51 34 18 60 20 69 6z m204 -11 c30 -18 33 -24 27 -52 -4 -17 -10 -35 -16 -41 -22 -22 -64 24 -76 82 -5 27 -4 32 12 32 11 0 34 -9 53 -21z m-399 -115 c0 -14 -21 -19 -33 -7 -9 9 13 34 24 27 5 -3 9 -12 9 -20z m550 11 c11 -13 8 -15 -14 -15 -25 0 -33 10 -19 23 10 11 19 8 33 -8z m-274 -16 c10 -17 -13 -36 -27 -22 -12 12 -4 33 11 33 5 0 12 -5 16 -11z m-295 -107 c47 -8 47 -8 33 -82 -10 -53 -18 -59 -67 -48 -76 17 -90 52 -50 131 11 22 17 26 28 17 7 -6 32 -14 56 -18z m333 15 c22 -16 11 -45 -28 -70 -23 -15 -25 -15 -61 20 -35 34 -36 37 -19 50 23 17 85 17 108 0z m309 -14 c8 -16 17 -44 21 -64 6 -36 6 -36 -36 -47 -83 -22 -95 -20 -101 21 -3 17 -8 41 -12 53 -6 19 -2 22 42 27 28 3 52 12 58 21 13 21 12 21 28 -11z m-480 -125 c-6 -12 -31 -10 -38 2 -4 6 -4 18 -1 26 5 12 8 12 24 -3 10 -10 17 -21 15 -25z m277 16 c0 -9 -10 -14 -27 -14 -25 0 -26 1 -8 20 19 21 35 18 35 -6z m-122 -103 c29 -10 58 -23 64 -29 14 -14 -60 -52 -102 -52 -38 0 -113 37 -107 53 2 7 24 20 48 29 24 9 44 17 44 17 0 0 24 -8 53 -18z m-320 -23 c41 -9 56 -17 67 -37 77 -148 354 -147 431 2 8 15 19 25 24 22 6 -4 38 1 71 10 34 8 64 14 66 11 2 -2 -7 -29 -21 -60 -35 -78 -114 -159 -195 -199 -60 -29 -74 -32 -161 -32 -87 0 -101 3 -161 32 -80 40 -160 121 -195 199 -25 57 -24 80 5 69 9 -4 40 -11 69 -17z"/>
 </g>
<g id="layer103" fill="#699fff" stroke="none">
 <path d="M680 1608 c0 -10 -59 -28 -75 -22 -8 4 -15 2 -15 -4 0 -10 -60 -38 -72 -34 -5 1 -8 -2 -8 -7 0 -5 -29 -33 -65 -61 -35 -29 -62 -57 -59 -61 2 -5 -6 -19 -18 -31 -13 -13 -22 -29 -20 -35 2 -7 -2 -13 -8 -13 -5 0 -9 -3 -9 -7 4 -18 -14 -73 -23 -73 -6 0 -8 -6 -5 -13 3 -7 2 -54 -2 -103 -4 -49 -4 -92 1 -95 4 -3 9 -24 11 -47 1 -23 6 -42 10 -42 5 0 5 -4 2 -10 -3 -5 -2 -10 3 -10 6 0 15 -12 21 -27 25 -60 63 -109 124 -159 35 -29 39 -37 42 -86 8 -131 129 -291 274 -364 l76 -39 135 0 135 0 76 39 c100 50 185 135 234 234 38 78 41 99 37 262 -2 94 -3 98 -46 169 -50 84 -141 192 -159 188 -7 -1 -12 10 -13 28 0 17 -4 38 -8 47 -4 9 -5 22 -1 28 3 5 2 10 -3 10 -5 0 -14 18 -21 39 -15 51 -87 148 -142 193 -89 72 -185 106 -317 110 -50 2 -92 0 -92 -4z m190 -103 c64 -17 145 -59 158 -82 5 -8 12 -14 15 -14 4 1 7 -1 8 -4 0 -2 13 -18 28 -34 22 -24 81 -129 81 -145 0 -2 -30 -2 -67 1 -60 3 -70 7 -88 31 -11 14 -18 27 -15 27 8 1 -34 43 -43 44 -5 0 -15 8 -22 17 -7 10 -21 19 -31 20 -124 16 -164 19 -164 11 0 -5 -9 -7 -20 -4 -11 3 -20 1 -20 -5 0 -6 -6 -8 -14 -5 -8 3 -17 -1 -20 -9 -3 -9 -10 -13 -15 -10 -5 3 -12 -1 -15 -10 -3 -8 -10 -13 -15 -10 -5 3 -14 -1 -21 -9 -7 -8 -10 -15 -6 -15 3 0 -5 -18 -19 -40 -14 -22 -25 -44 -25 -50 0 -5 -3 -10 -8 -10 -13 0 4 -154 20 -186 16 -29 15 -32 -14 -92 l-31 -62 -33 37 c-18 20 -31 40 -28 45 3 4 0 8 -6 8 -7 0 -10 7 -6 15 3 8 1 15 -4 15 -11 0 -30 57 -30 95 -1 100 2 140 11 146 5 3 7 13 3 22 -3 9 -2 17 3 17 5 0 9 10 10 21 3 36 93 148 114 142 3 -1 21 12 39 28 37 34 77 52 97 45 7 -3 13 -1 13 4 0 21 104 25 180 5z m0 -256 c9 -16 0 -23 -67 -56 -43 -20 -81 -37 -84 -36 -3 1 -21 -14 -39 -32 -45 -46 -60 -45 -60 5 0 27 7 47 20 60 11 11 17 20 13 20 -4 0 6 13 21 29 16 16 35 27 42 24 8 -3 14 0 14 5 0 29 124 12 140 -19z m263 -146 c24 -10 37 -23 37 -35 0 -10 -5 -18 -11 -18 -5 0 -7 -4 -4 -10 3 -5 -1 -23 -10 -40 -15 -30 -16 -30 -51 -15 -20 8 -45 15 -55 15 -27 0 -31 15 -15 57 8 21 17 46 20 56 6 20 22 18 89 -10z m-193 2 c0 -8 -4 -15 -10 -15 -5 0 -7 -7 -4 -15 4 -8 1 -15 -6 -15 -6 0 -9 -4 -6 -8 8 -14 -48 -62 -85 -72 -43 -13 -71 -13 -103 0 l-25 9 32 37 c29 32 107 83 107 69 0 -3 12 1 28 9 36 20 72 20 72 1z m370 -126 c16 -16 32 -40 35 -52 3 -12 11 -40 16 -62 6 -22 15 -50 20 -63 17 -43 9 -102 -23 -179 -42 -100 -108 -172 -196 -215 -61 -30 -75 -33 -162 -33 -87 0 -101 3 -162 33 -81 39 -156 117 -188 197 -12 30 -21 57 -19 59 5 5 90 -17 107 -27 6 -5 17 -5 22 -2 6 3 10 -1 10 -9 0 -26 61 -87 114 -112 131 -63 316 2 348 122 34 133 31 202 -9 242 -8 8 -13 17 -11 21 2 4 12 30 22 59 11 29 26 52 34 52 8 0 27 -14 42 -31z m-292 3 c2 -7 -6 -12 -17 -12 -21 0 -27 11 -14 24 9 9 26 2 31 -12z m-285 -102 c29 0 32 -8 17 -54 -5 -17 -12 -43 -15 -57 -5 -26 -6 -27 -47 -18 -49 11 -71 33 -63 63 25 93 26 95 54 80 14 -8 38 -14 54 -14z m314 12 c7 -4 11 -14 10 -22 -4 -23 -17 -41 -27 -35 -4 3 -10 -1 -13 -9 -7 -17 -91 -61 -137 -71 -32 -7 -32 -7 -27 27 7 56 39 94 85 104 8 1 16 5 20 8 8 9 75 7 89 -2z m98 -203 c-21 -46 -91 -89 -144 -89 -37 0 -101 29 -101 46 0 6 26 21 59 33 32 11 79 37 105 56 25 20 46 33 46 30 0 -4 8 1 17 11 17 16 18 16 27 -14 7 -25 5 -42 -9 -73z"/>
 </g>
<g id="layer104" fill="#6eabff" stroke="none">
 <path d="M624 1582 c-45 -16 -103 -44 -130 -64 -134 -98 -207 -266 -190 -438 7 -73 38 -172 63 -201 7 -8 13 -20 13 -25 0 -9 39 -50 130 -134 15 -14 32 -24 38 -22 6 2 19 -5 29 -15 10 -10 26 -17 36 -15 9 2 32 -1 50 -7 17 -6 61 -13 97 -16 36 -4 70 -8 77 -10 6 -2 13 -1 15 3 2 4 35 17 74 30 80 25 129 55 200 122 27 25 52 44 56 43 4 -2 7 3 5 9 -1 7 8 14 20 16 19 3 21 7 13 22 -7 14 -4 31 11 67 11 26 23 72 26 101 3 28 9 52 13 52 10 0 10 54 -1 60 -4 3 -11 24 -13 45 -3 22 -10 55 -15 74 -6 19 -8 37 -6 42 3 4 2 9 -2 11 -5 1 -26 29 -47 61 -128 189 -346 263 -562 189z m235 -74 c28 -6 51 -15 51 -19 0 -5 7 -6 15 -3 8 3 17 0 20 -8 3 -8 12 -15 19 -15 7 0 30 -10 50 -22 58 -36 157 -199 143 -235 -4 -9 -2 -16 3 -16 6 0 10 -31 10 -70 0 -66 -14 -120 -32 -120 -4 0 -7 -3 -7 -7 3 -21 -4 -22 -37 -8 -20 8 -45 15 -55 15 -28 0 -30 13 -8 71 11 30 22 62 26 72 3 9 9 17 14 17 5 0 6 7 3 15 -4 8 -1 15 7 15 7 0 9 3 6 7 -4 3 0 11 9 18 13 9 8 11 -25 13 -35 2 -50 11 -94 55 -73 74 -99 93 -119 89 -10 -2 -18 1 -18 5 0 12 -114 -1 -155 -17 -46 -17 -93 -57 -122 -103 -20 -32 -27 -59 -31 -113 -4 -63 -1 -79 23 -130 16 -33 27 -62 27 -67 -1 -4 1 -6 5 -5 5 1 28 -10 51 -26 24 -15 68 -31 97 -36 52 -9 110 -44 99 -62 -3 -4 1 -8 8 -8 8 0 22 13 31 29 10 17 27 33 39 36 15 5 17 9 8 15 -17 10 -2 33 17 26 8 -3 11 -2 8 3 -3 5 3 16 14 23 10 7 20 22 22 33 6 29 34 25 34 -5 0 -14 6 -25 13 -25 8 0 20 -8 27 -18 7 -10 17 -18 21 -17 20 4 13 -21 -16 -53 -29 -33 -115 -85 -132 -79 -5 1 -8 -3 -8 -9 0 -6 -9 -8 -20 -4 -12 4 -20 2 -20 -5 0 -8 -11 -11 -30 -8 -16 3 -30 1 -30 -4 0 -12 -80 -10 -136 5 -76 20 -175 90 -230 164 -60 80 -77 264 -33 361 55 119 140 193 264 227 63 17 110 18 174 3z m26 -258 c8 -7 13 -16 10 -20 -3 -4 2 -11 11 -14 9 -4 14 -13 10 -21 -3 -8 -1 -15 5 -15 6 0 9 -7 5 -15 -3 -8 0 -15 6 -15 7 0 9 -16 5 -47 -4 -39 -12 -54 -46 -86 -30 -28 -47 -36 -61 -32 -12 4 -20 2 -20 -6 0 -19 -83 -4 -119 22 -17 13 -29 29 -27 35 3 7 -2 15 -10 18 -9 3 -12 11 -9 16 4 6 1 9 -7 8 -15 -3 -23 50 -13 89 3 13 24 45 47 70 38 40 46 44 75 40 18 -3 33 -2 33 3 0 11 85 -14 105 -30z"/>
 <path d="M778 1183 c-50 -23 -57 -29 -56 -54 1 -16 5 -29 11 -29 6 0 7 -17 4 -40 l-5 -40 19 23 c10 14 32 30 49 37 28 11 30 16 30 61 0 27 5 49 10 49 6 0 10 5 10 10 0 14 -6 12 -72 -17z"/>
 <path d="M1353 1074 c4 -7 0 -15 -9 -18 -8 -3 -14 -12 -12 -20 2 -8 -1 -15 -6 -14 -23 0 -23 -28 0 -61 13 -20 24 -42 24 -51 0 -13 1 -13 10 0 5 8 10 11 10 5 0 -5 7 1 16 13 8 12 20 19 26 16 6 -4 8 -2 5 3 -4 6 0 13 8 17 12 4 9 14 -15 49 -26 39 -75 91 -57 61z"/>
 <path d="M1472 842 c-1 -7 -6 -11 -11 -7 -5 3 -16 -4 -24 -15 -7 -11 -17 -17 -20 -13 -4 3 -7 1 -7 -6 0 -7 -4 -9 -10 -6 -6 4 -10 -12 -10 -42 0 -26 -3 -58 -6 -70 -7 -27 20 -33 30 -7 3 8 10 12 16 9 5 -3 10 -2 10 4 0 6 7 8 15 5 19 -8 27 27 22 101 -2 33 -4 54 -5 47z"/>
 <path d="M1157 741 c3 -10 -3 -33 -12 -50 -13 -26 -13 -34 -3 -44 19 -18 93 -16 96 3 1 8 4 32 8 53 l6 37 -36 0 c-20 0 -36 5 -36 10 0 6 -6 10 -14 10 -9 0 -12 -7 -9 -19z"/>
 </g>
<g id="layer105" fill="#9a87ff" stroke="none">
 <path d="M624 1592 c-220 -76 -352 -281 -330 -512 7 -73 38 -172 63 -201 7 -8 13 -20 13 -25 0 -6 24 -34 53 -64 55 -56 191 -130 272 -147 71 -16 269 15 308 47 40 34 107 80 116 80 6 0 11 4 11 8 0 8 41 61 72 93 9 10 14 19 12 22 -6 5 26 80 36 87 15 9 18 248 3 278 -25 54 -56 127 -59 139 -4 22 -67 82 -127 122 -34 22 -68 45 -75 51 -7 6 -38 20 -69 31 -85 29 -197 26 -299 -9z m271 -95 c55 -5 144 -73 209 -161 51 -69 76 -188 56 -266 -6 -25 -12 -52 -14 -60 -5 -35 -16 -40 -53 -25 -19 8 -44 15 -54 15 -27 0 -31 15 -15 57 8 21 17 47 22 58 4 11 15 41 24 68 l17 47 -33 0 c-27 0 -36 6 -54 38 -27 49 -72 79 -156 104 -60 18 -75 19 -121 8 -63 -14 -127 -59 -167 -119 -23 -34 -30 -58 -34 -111 -6 -90 9 -132 72 -193 84 -81 82 -81 148 -84 56 -3 65 -6 87 -34 l24 -31 19 31 c11 17 24 31 29 31 5 0 9 8 9 19 0 10 16 29 35 42 19 13 36 33 37 43 4 29 27 31 37 3 5 -14 23 -34 40 -47 17 -12 31 -26 31 -31 0 -5 -14 -21 -31 -36 -17 -16 -42 -38 -56 -50 -13 -13 -29 -23 -35 -23 -6 0 -19 -7 -29 -15 -9 -9 -34 -18 -55 -21 -125 -14 -146 -15 -157 -6 -9 7 -61 21 -98 26 -18 3 -99 62 -120 88 -13 17 -33 42 -45 57 -59 74 -77 262 -33 359 69 152 211 240 369 227 36 -3 79 -7 95 -8z m-79 -218 c24 -6 44 -15 44 -20 0 -4 9 -11 21 -14 12 -4 29 -26 41 -52 17 -39 18 -51 8 -91 -11 -47 -51 -101 -88 -121 -25 -13 -76 -14 -100 -2 -9 5 -29 14 -45 22 -57 27 -85 125 -53 187 22 42 80 89 124 101 2 1 23 -4 48 -10z"/>
 <path d="M778 1183 c-40 -17 -45 -30 -40 -100 l4 -41 35 24 c20 13 40 24 44 24 5 0 9 25 9 55 0 60 1 60 -52 38z"/>
 <path d="M1352 1045 c-6 -13 -20 -30 -31 -36 -18 -12 -18 -14 6 -51 14 -21 30 -38 35 -38 6 0 23 14 38 30 l29 31 -20 34 c-31 52 -44 59 -57 30z"/>
 <path d="M1430 804 c-30 -22 -36 -32 -40 -75 -6 -55 -3 -57 51 -31 38 17 38 18 39 75 0 31 -3 57 -7 56 -5 0 -24 -12 -43 -25z"/>
 <path d="M1148 698 c-10 -23 -16 -43 -15 -45 2 -1 24 -6 48 -9 41 -6 46 -4 57 20 7 15 12 38 12 51 0 23 -4 25 -42 25 -41 0 -44 -2 -60 -42z"/>
 </g>
<g id="layer106" fill="#a798ff" stroke="none">
 <path d="M980 1560 c0 -6 -4 -8 -10 -5 -5 3 -10 1 -10 -5 0 -6 -5 -8 -10 -5 -6 4 -9 1 -8 -7 2 -7 -2 -12 -9 -11 -6 1 -14 -4 -17 -12 -3 -9 12 -24 46 -43 l50 -29 26 24 c15 14 34 22 44 20 26 -7 22 6 -9 30 -45 32 -93 55 -93 43z"/>
 <path d="M788 1366 c-10 -7 -15 -16 -11 -19 3 -4 2 -7 -3 -7 -5 0 -9 -11 -9 -24 0 -21 7 -27 42 -35 46 -12 74 -6 67 14 -3 7 4 19 15 27 26 18 15 33 -34 47 -49 13 -46 13 -67 -3z"/>
 <path d="M1103 1364 c-7 -7 -5 -18 8 -35 10 -13 19 -29 19 -36 0 -15 40 -38 40 -23 0 5 16 10 35 10 19 0 35 2 35 4 0 2 -9 25 -19 50 -20 44 -21 45 -64 43 -24 -1 -49 -7 -54 -13z"/>
 <path d="M986 1244 c-5 -13 -16 -15 -51 -12 -37 5 -42 3 -30 -8 18 -18 38 -81 30 -94 -3 -5 0 -10 7 -10 8 0 19 -19 25 -42 13 -48 0 -82 -29 -74 -10 2 -18 0 -18 -6 0 -5 -4 -6 -10 -3 -5 3 -10 2 -10 -3 0 -5 -12 -10 -27 -10 -51 -2 -113 -14 -119 -23 -3 -5 0 -9 6 -9 7 0 10 -7 6 -15 -3 -8 -2 -15 3 -15 12 0 9 -33 -4 -42 -5 -4 2 -8 16 -8 17 0 33 -11 48 -31 l23 -31 20 31 c11 17 24 31 29 31 5 0 9 8 9 19 0 10 16 29 35 42 19 13 36 33 37 43 4 26 26 32 34 9 4 -10 22 -32 42 -50 32 -28 34 -33 21 -49 -7 -10 -9 -15 -3 -11 11 6 50 -32 46 -45 -1 -5 3 -8 9 -8 5 0 7 -4 4 -10 -17 -27 23 5 44 35 13 19 28 35 33 35 5 0 7 4 4 9 -4 5 3 30 14 55 10 25 15 46 10 46 -6 0 -10 -4 -10 -10 0 -5 -7 -10 -15 -10 -8 0 -15 4 -15 9 0 5 -9 7 -20 4 -12 -3 -20 0 -20 7 0 10 -5 9 -17 -3 -16 -14 -22 -14 -52 -1 -18 8 -42 14 -52 14 -27 0 -31 15 -15 57 8 21 17 47 22 58 4 11 15 41 24 68 l17 47 -34 0 c-21 0 -36 6 -39 15 -8 20 -20 19 -28 -1z"/>
 <path d="M1168 1153 c4 -51 30 -101 46 -86 3 4 6 1 6 -6 0 -7 4 -10 9 -6 5 3 13 0 18 -7 5 -8 10 4 13 32 6 56 1 102 -11 94 -5 -3 -12 2 -15 11 -4 9 -13 14 -21 11 -8 -3 -22 -2 -31 3 -15 8 -17 3 -14 -46z"/>
 <path d="M778 1183 c-40 -17 -45 -30 -40 -100 l4 -41 35 24 c20 13 40 24 44 24 5 0 9 25 9 55 0 60 1 60 -52 38z"/>
 <path d="M624 1074 c3 -6 -7 -24 -22 -41 -35 -39 -37 -51 -15 -75 23 -26 79 -66 69 -50 -4 7 -2 12 4 12 6 0 9 4 6 9 -3 5 1 12 10 15 8 3 12 10 9 16 -3 5 -2 10 4 10 14 0 8 23 -12 45 -10 11 -27 31 -38 45 -11 14 -18 20 -15 14z"/>
 <path d="M1352 1045 c-6 -13 -20 -30 -31 -36 -18 -12 -18 -14 6 -51 14 -21 30 -38 35 -38 6 0 23 14 38 30 l29 31 -20 34 c-31 52 -44 59 -57 30z"/>
 <path d="M518 809 c3 -24 0 -39 -7 -39 -15 0 -14 -29 2 -45 7 -7 33 -23 56 -35 35 -18 45 -19 52 -8 11 17 11 98 0 98 -5 0 -31 15 -58 34 l-48 33 3 -38z"/>
 <path d="M1430 804 c-30 -22 -36 -32 -40 -75 -6 -55 -3 -57 51 -31 38 17 38 18 39 75 0 31 -3 57 -7 56 -5 0 -24 -12 -43 -25z"/>
 <path d="M973 794 c-17 -7 -34 -18 -38 -24 -3 -5 -15 -10 -27 -10 -17 0 -18 -2 -8 -15 7 -9 15 -13 18 -10 3 3 12 -4 19 -15 8 -11 19 -18 24 -15 5 4 9 2 9 -4 0 -15 53 3 90 30 29 22 30 24 13 36 -10 8 -25 19 -34 26 -21 16 -29 17 -66 1z"/>
 <path d="M730 723 c0 -13 5 -23 11 -23 6 0 9 -7 5 -15 -3 -8 -1 -15 5 -15 6 0 8 -4 4 -9 -9 -16 33 -23 86 -16 43 6 48 9 33 19 -9 7 -14 18 -10 24 4 7 2 12 -4 12 -6 0 -8 5 -5 10 12 19 -20 35 -73 35 -47 0 -52 -2 -52 -22z"/>
 <path d="M1148 698 c-10 -23 -16 -43 -15 -45 2 -1 24 -6 48 -9 41 -6 46 -4 57 20 7 15 12 38 12 51 0 23 -4 25 -42 25 -41 0 -44 -2 -60 -42z"/>
 </g>
<g id="layer107" fill="#72d2ff" stroke="none">
 <path d="M953 1533 c-24 -15 -39 -32 -36 -40 3 -7 9 -10 14 -7 5 3 9 0 9 -6 0 -6 5 -8 10 -5 6 3 13 -1 16 -9 3 -9 10 -13 15 -10 5 3 9 0 9 -6 0 -5 18 1 40 15 22 14 44 25 50 25 5 0 10 7 10 16 0 8 -4 13 -8 10 -5 -3 -19 5 -33 17 -34 31 -49 31 -96 0z"/>
 <path d="M807 1377 c-9 -6 -23 -29 -32 -49 -14 -34 -14 -38 0 -38 8 0 15 -5 15 -11 0 -6 9 -8 20 -4 11 4 20 2 20 -4 0 -24 19 -9 44 33 30 52 31 56 11 56 -8 0 -15 4 -15 10 0 5 -7 7 -16 3 -9 -3 -19 -1 -23 6 -5 8 -11 8 -24 -2z"/>
 <path d="M1125 1367 c-26 -8 -36 -15 -27 -21 7 -4 10 -12 7 -17 -4 -5 0 -12 9 -15 8 -3 12 -12 9 -20 -3 -8 0 -14 7 -14 6 0 8 -5 4 -11 -5 -8 -1 -8 14 0 11 6 36 11 56 11 19 0 38 5 41 10 3 6 1 10 -5 10 -6 0 -8 5 -5 10 3 6 1 10 -5 10 -7 0 -10 7 -6 15 3 8 1 15 -4 15 -6 0 -9 6 -7 13 3 17 -39 19 -88 4z"/>
 <path d="M991 1252 c-9 -16 -21 -22 -46 -22 -19 0 -35 -3 -35 -6 0 -3 10 -29 23 -57 32 -73 57 -149 51 -159 -3 -4 -13 -8 -23 -8 -10 0 -35 -7 -54 -15 -33 -14 -37 -13 -46 3 -7 10 -11 12 -11 4 0 -7 -4 -10 -10 -7 -5 3 -10 1 -10 -4 0 -6 -16 -11 -35 -11 l-35 0 15 -36 c8 -20 12 -40 10 -45 -3 -4 3 -17 13 -27 10 -10 26 -29 36 -43 17 -24 17 -24 31 -4 8 11 24 30 36 43 12 12 19 28 16 36 -4 9 8 23 28 38 19 12 36 32 37 42 4 26 28 33 28 8 0 -20 52 -72 72 -72 6 0 8 -7 4 -15 -3 -8 2 -19 12 -24 10 -5 24 -21 32 -35 7 -14 16 -26 19 -26 3 0 17 16 29 34 15 21 29 33 38 29 8 -3 14 0 14 6 0 6 -4 11 -10 11 -14 0 -12 16 3 32 8 7 12 19 9 26 -2 6 2 12 10 13 7 0 -12 6 -42 13 -34 7 -60 8 -67 3 -8 -6 -13 -6 -13 0 0 11 -58 33 -88 33 -12 0 -22 5 -22 10 0 6 4 10 10 10 5 0 7 6 4 14 -3 7 2 20 10 29 9 9 16 23 16 31 0 9 3 16 8 16 4 0 12 19 18 43 6 23 13 49 15 57 3 11 -6 16 -30 18 -19 2 -40 11 -47 20 -10 14 -13 13 -23 -6z"/>
 <path d="M813 1208 c-13 -6 -23 -15 -23 -21 0 -5 -7 -7 -15 -3 -8 3 -15 1 -15 -4 0 -6 -5 -9 -11 -7 -12 2 -22 -130 -10 -137 4 -3 19 6 33 19 14 13 29 21 32 18 3 -4 6 -1 6 5 0 7 6 11 12 10 8 -2 12 6 10 23 -2 14 1 44 6 67 11 45 9 47 -25 30z"/>
 <path d="M1168 1148 c2 -32 7 -58 11 -58 5 0 24 -11 44 -24 l35 -24 4 45 c4 59 -8 80 -57 102 l-40 18 3 -59z"/>
 <path d="M1346 1051 c-9 -17 -25 -35 -36 -41 -20 -11 -20 -11 5 -48 14 -20 25 -42 25 -50 0 -19 53 11 78 44 19 27 19 28 0 59 -10 18 -27 40 -37 49 -19 17 -20 17 -35 -13z"/>
 <path d="M619 1053 c-8 -10 -23 -31 -34 -47 l-18 -30 37 -34 38 -34 27 44 28 43 -21 21 c-12 11 -26 28 -31 38 -10 17 -11 17 -26 -1z"/>
 <path d="M1442 820 c-24 -16 -47 -30 -51 -32 -4 -2 -11 -31 -14 -65 -6 -69 -9 -68 71 -31 l42 20 0 69 c0 38 -1 69 -2 69 -2 0 -22 -13 -46 -30z"/>
 <path d="M520 778 l0 -64 46 -22 c26 -13 47 -22 48 -20 1 2 0 28 -2 59 -3 46 -8 59 -25 68 -12 6 -32 18 -44 27 l-23 16 0 -64z"/>
 <path d="M987 798 c-10 -5 -21 -6 -27 -3 -5 3 -14 -4 -20 -15 -7 -14 -18 -19 -28 -16 -26 9 39 -44 72 -59 27 -11 32 -10 55 11 13 12 28 21 32 19 4 -3 9 2 13 10 3 8 2 16 -2 19 -60 36 -80 43 -95 34z"/>
 <path d="M793 742 c-38 -3 -43 -6 -43 -27 0 -43 21 -75 49 -75 48 0 73 11 65 29 -4 9 -12 30 -18 46 -10 28 -14 30 -53 27z"/>
 <path d="M1150 735 c0 -8 -8 -30 -17 -50 -9 -19 -15 -37 -12 -39 2 -3 28 -8 56 -12 50 -6 52 -6 67 24 9 17 16 45 16 62 0 30 0 30 -55 30 -42 0 -55 -4 -55 -15z"/>
 </g>
<g id="layer108" fill="#98aeff" stroke="none">
 <path d="M951 1534 c-14 -13 -28 -21 -33 -18 -4 3 -8 1 -8 -3 0 -5 17 -17 37 -28 20 -11 42 -26 50 -33 8 -9 13 -10 13 -2 0 6 5 8 10 5 6 -3 10 -1 10 5 0 6 5 8 10 5 6 -3 13 1 16 10 4 9 13 14 20 11 38 -15 -11 43 -51 59 -35 15 -49 12 -74 -11z"/>
 <path d="M1160 1379 c0 -6 -9 -9 -20 -6 -11 3 -20 1 -20 -5 0 -6 -6 -8 -14 -5 -24 9 -27 -5 -5 -21 12 -8 28 -31 36 -51 9 -20 18 -31 20 -24 3 9 18 11 48 6 l43 -5 -24 51 c-23 48 -64 87 -64 60z"/>
 <path d="M789 1374 c-1 -5 -1 -12 0 -16 0 -5 -4 -8 -10 -8 -5 0 -7 -4 -4 -10 3 -5 1 -10 -5 -10 -7 0 -10 -6 -7 -14 3 -8 1 -16 -6 -19 -7 -2 10 -7 37 -10 27 -4 55 -12 63 -18 11 -9 12 -8 7 5 -3 9 -1 16 6 16 6 0 8 5 5 10 -3 6 0 12 7 15 26 10 18 42 -12 48 -15 4 -39 9 -54 13 -14 3 -27 2 -27 -2z"/>
 <path d="M980 1245 c0 -10 -10 -15 -34 -15 -19 0 -38 -4 -41 -10 -3 -5 -1 -10 5 -10 6 0 8 -4 5 -10 -3 -5 -1 -10 5 -10 7 0 10 -6 8 -12 -3 -7 3 -21 12 -31 10 -10 15 -27 12 -42 -3 -16 0 -25 8 -25 7 0 10 -7 6 -15 -3 -8 -1 -15 5 -15 6 0 8 -4 5 -9 -4 -5 -1 -11 6 -13 18 -6 0 -28 -23 -28 -11 0 -29 -5 -41 -11 -21 -11 -48 -15 -128 -18 -30 -1 -40 -4 -31 -10 7 -5 10 -14 7 -20 -4 -6 -3 -11 2 -11 16 0 23 -30 12 -51 -8 -15 -7 -19 5 -19 8 0 15 5 15 10 0 6 15 10 33 10 17 0 47 9 65 20 17 11 32 17 32 13 0 -4 6 2 14 13 8 10 20 19 28 19 7 0 12 9 10 20 -2 10 2 24 10 29 41 32 55 179 23 234 -21 34 -35 41 -35 17z"/>
 <path d="M1158 1203 c7 -3 12 -25 12 -58 0 -49 2 -53 30 -65 17 -7 40 -24 50 -38 l20 -25 -7 48 c-4 35 -2 49 8 56 8 5 9 9 3 9 -7 0 -14 9 -17 19 -4 16 -86 63 -106 60 -3 0 0 -3 7 -6z"/>
 <path d="M758 1169 c-10 -5 -18 -16 -18 -24 0 -7 -6 -16 -12 -18 -10 -4 -10 -6 0 -6 6 -1 12 -8 12 -16 0 -20 43 -29 69 -15 26 13 28 58 4 76 -22 16 -32 17 -55 3z"/>
 <path d="M619 1053 c-8 -10 -24 -31 -35 -48 l-21 -30 34 -31 c18 -17 33 -28 33 -25 0 3 5 -1 10 -9 9 -13 10 -13 10 0 0 9 11 31 24 51 23 33 23 60 0 61 -5 0 -8 4 -6 9 1 5 -2 9 -8 9 -5 0 -9 5 -7 11 4 19 -19 20 -34 2z"/>
 <path d="M1124 954 c-8 -17 -24 -41 -34 -52 -19 -21 -19 -21 0 -27 10 -3 29 -22 40 -41 12 -19 26 -32 31 -28 5 3 7 9 4 14 -3 5 5 16 17 24 12 9 19 16 16 16 -4 0 2 19 12 43 25 54 25 67 0 67 -11 0 -20 4 -20 9 0 5 -12 8 -26 7 -18 -1 -30 -10 -40 -32z"/>
 <path d="M521 787 c-1 -46 4 -73 13 -82 7 -8 16 -11 20 -8 3 4 6 1 6 -6 0 -7 4 -10 9 -6 5 3 16 -2 24 -10 23 -22 40 -20 27 4 -5 11 -10 43 -10 71 0 32 -4 49 -10 45 -5 -3 -10 -1 -10 6 0 7 -3 9 -7 6 -3 -4 -13 2 -20 13 -8 11 -18 18 -23 15 -4 -3 -11 1 -13 7 -3 7 -6 -18 -6 -55z"/>
 <path d="M1000 814 c0 -5 -20 -20 -44 -33 -26 -15 -42 -30 -39 -37 3 -8 8 -13 11 -11 4 1 19 -7 34 -17 30 -20 60 -15 93 14 11 9 29 23 40 29 15 9 15 11 3 7 -10 -3 -18 -1 -18 5 0 6 -4 8 -9 5 -5 -3 -12 1 -15 10 -3 8 -11 12 -17 8 -7 -4 -18 1 -26 11 -7 11 -13 14 -13 9z"/>
 <path d="M830 750 c0 -5 -18 -10 -41 -10 l-41 0 6 -37 c4 -21 7 -45 8 -53 3 -16 78 -25 78 -9 0 5 7 9 15 9 19 0 19 4 -1 42 -9 17 -14 39 -11 49 3 11 1 19 -4 19 -5 0 -9 -4 -9 -10z"/>
 </g>
<g id="layer109" fill="#b6b1ff" stroke="none">
 <path d="M969 1544 c-50 -26 -53 -40 -16 -63 46 -28 49 -28 126 16 8 5 -22 33 -52 48 -16 8 -31 15 -31 14 -1 -1 -13 -7 -27 -15z"/>
 <path d="M796 1357 c-33 -52 -30 -63 19 -74 28 -6 45 -7 45 -1 0 6 9 23 21 40 12 16 20 30 18 32 -2 2 -23 8 -47 14 -39 9 -44 8 -56 -11z"/>
 <path d="M1140 1368 c-46 -13 -46 -13 -21 -44 11 -15 21 -32 21 -39 0 -9 11 -10 45 -2 49 11 52 22 19 75 -16 24 -15 24 -64 10z"/>
 <path d="M913 1218 c1 -10 5 -18 10 -18 5 0 7 -7 3 -15 -3 -8 -1 -15 4 -15 6 0 10 -6 10 -14 0 -7 6 -19 14 -25 12 -10 21 -43 29 -106 1 -15 -4 -20 -23 -20 -14 0 -31 -6 -39 -13 -7 -7 -20 -11 -27 -8 -8 3 -14 2 -14 -2 0 -4 -24 -8 -52 -10 -29 -2 -54 -5 -56 -7 -2 -2 1 -19 7 -36 9 -25 8 -34 -1 -41 -8 -4 8 -8 37 -8 34 0 61 7 85 22 19 12 37 22 40 23 12 1 48 44 42 50 -4 4 0 12 8 18 34 27 57 152 37 206 -11 33 -14 34 -64 36 -44 2 -51 -1 -50 -17z"/>
 <path d="M1173 1190 c-13 -36 -10 -106 5 -102 7 1 12 -3 12 -9 0 -5 4 -8 9 -4 5 3 16 -2 24 -10 31 -30 42 -18 42 44 0 32 -3 57 -8 54 -4 -2 -10 2 -13 11 -3 8 -12 12 -20 9 -8 -3 -14 0 -14 7 0 6 -4 9 -9 6 -5 -4 -11 0 -14 6 -3 8 -8 2 -14 -12z"/>
 <path d="M758 1169 c-12 -6 -18 -22 -18 -44 0 -28 4 -36 24 -41 54 -13 91 50 49 82 -22 16 -32 17 -55 3z"/>
 <path d="M607 1052 c-9 -10 -14 -22 -10 -25 3 -4 1 -7 -6 -7 -7 0 -10 -4 -7 -9 3 -5 -2 -12 -11 -15 -14 -6 -14 -8 3 -21 10 -8 15 -15 11 -15 -13 0 24 -34 40 -36 21 -3 44 7 38 16 -3 4 7 19 21 33 15 15 21 28 14 32 -5 3 -10 3 -10 -1 0 -4 -15 9 -33 30 -32 36 -34 36 -50 18z"/>
 <path d="M1133 973 c-3 -10 -16 -31 -27 -48 -25 -35 -28 -60 -6 -60 8 -1 14 -6 12 -13 -1 -7 5 -15 13 -18 8 -3 12 -10 9 -15 -6 -11 -1 -11 20 -3 16 6 76 118 76 141 0 7 -12 13 -26 13 -14 0 -34 5 -45 10 -15 9 -21 7 -26 -7z"/>
 <path d="M517 772 c2 -54 5 -66 18 -64 8 2 15 -2 15 -8 0 -6 4 -9 9 -5 6 3 13 0 18 -7 9 -14 53 -19 53 -6 0 4 -5 8 -11 8 -7 0 -10 18 -7 49 1 27 0 47 -4 44 -5 -2 -8 1 -8 7 0 6 -4 8 -10 5 -5 -3 -10 -1 -10 5 0 6 -4 9 -9 5 -5 -3 -16 3 -23 12 -26 35 -34 23 -31 -45z"/>
 <path d="M962 783 l-50 -26 31 -26 c18 -14 33 -29 35 -33 5 -10 51 12 84 38 25 20 26 23 10 28 -10 4 -28 15 -39 26 -21 19 -21 19 -71 -7z"/>
 <path d="M764 742 c-14 -9 -24 -62 -13 -62 5 0 11 -11 15 -25 6 -25 44 -37 44 -14 0 7 13 10 33 7 23 -2 34 1 34 9 0 7 -4 13 -9 13 -5 0 -6 5 -3 10 3 6 1 10 -5 10 -6 0 -8 5 -5 10 3 6 1 10 -4 10 -6 0 -11 7 -11 15 0 8 -9 15 -19 15 -11 0 -25 2 -33 5 -7 3 -18 1 -24 -3z"/>
 </g>
<g id="layer110" fill="#9fc9ff" stroke="none">
 <path d="M975 1557 c-12 -7 -36 -24 -55 -39 -26 -21 -30 -28 -17 -28 10 0 35 -10 57 -22 l38 -22 45 22 c24 12 50 22 58 22 15 0 -40 47 -79 68 -14 6 -25 12 -26 11 0 -1 -10 -6 -21 -12z"/>
 <path d="M777 1338 l-26 -53 22 -3 c12 -2 37 -7 55 -12 27 -7 34 -6 39 8 4 9 15 29 25 44 24 34 18 44 -28 52 -19 4 -41 9 -49 12 -8 3 -22 -14 -38 -48z"/>
 <path d="M1140 1378 c-48 -13 -57 -24 -37 -45 8 -10 20 -30 26 -45 9 -24 13 -26 43 -18 18 5 43 10 55 12 l22 3 -25 53 c-27 55 -29 56 -84 40z"/>
 <path d="M985 1235 c-5 -2 -22 -6 -37 -9 -25 -6 -26 -8 -17 -39 6 -17 14 -41 19 -52 5 -11 11 -33 14 -50 3 -16 8 -41 11 -55 5 -23 2 -26 -47 -42 -29 -9 -55 -13 -58 -8 -3 4 -30 5 -61 3 l-56 -5 10 -34 c6 -19 14 -34 19 -34 4 0 8 -6 8 -14 0 -17 70 -27 87 -12 7 6 30 25 52 41 22 17 44 40 50 53 6 12 16 22 24 22 7 0 18 19 25 43 16 54 21 127 9 127 -4 0 -7 8 -5 18 2 9 -3 25 -12 35 -15 17 -17 18 -35 12z"/>
 <path d="M1172 1153 c0 -46 20 -76 59 -86 25 -7 31 9 27 59 -3 33 -8 39 -44 55 l-41 17 -1 -45z"/>
 <path d="M758 1169 c-12 -6 -18 -22 -18 -44 0 -28 5 -36 23 -40 45 -12 77 8 77 47 0 15 -9 27 -27 36 -32 14 -33 14 -55 1z"/>
 <path d="M619 1043 c-9 -10 -22 -29 -29 -42 -11 -21 -9 -27 19 -55 l31 -31 17 25 c28 38 31 52 14 70 -9 9 -21 25 -26 34 -10 17 -11 17 -26 -1z"/>
 <path d="M1131 986 c-6 -7 -8 -16 -4 -20 4 -4 1 -11 -7 -16 -8 -5 -15 -14 -15 -20 0 -6 -7 -15 -15 -20 -10 -7 -11 -10 -2 -10 6 0 11 -4 10 -8 -2 -4 9 -22 23 -39 l25 -30 29 25 c16 13 30 31 31 40 2 8 7 18 12 21 5 3 14 21 20 39 l11 32 -35 0 c-20 0 -44 4 -54 10 -13 7 -21 6 -29 -4z"/>
 <path d="M527 814 c-4 -4 -7 -26 -7 -50 0 -39 3 -43 40 -63 22 -12 43 -21 45 -21 3 0 5 21 5 48 0 42 -3 49 -33 67 -44 27 -42 26 -50 19z"/>
 <path d="M980 801 c0 -5 -19 -16 -42 -25 -42 -16 -42 -17 -23 -33 11 -8 35 -22 54 -30 31 -13 37 -13 79 9 24 13 45 28 44 33 0 12 -112 57 -112 46z"/>
 <path d="M750 718 c0 -9 4 -28 10 -42 8 -23 15 -26 60 -26 l51 0 -16 30 c-8 16 -15 36 -15 44 0 12 -10 15 -45 14 -35 -2 -45 -6 -45 -20z"/>
 </g>
<g id="layer111" fill="#c4b9ff" stroke="none">
 <path d="M923 1233 c-20 -4 -20 -6 -7 -31 8 -15 14 -37 14 -49 0 -21 5 -23 56 -23 l56 0 -7 33 c-17 75 -32 85 -112 70z"/>
 <path d="M1160 1190 c0 -11 4 -20 10 -20 5 0 7 -12 4 -28 -4 -20 1 -34 20 -55 14 -15 29 -27 34 -27 6 0 13 -8 17 -17 6 -15 8 -14 14 7 4 14 5 44 3 68 -3 35 -9 46 -31 55 -14 7 -32 17 -39 24 -19 19 -32 16 -32 -7z"/>
 <path d="M758 1169 c-12 -6 -18 -22 -18 -44 0 -29 4 -36 25 -41 32 -8 55 11 55 45 0 44 -27 61 -62 40z"/>
 <path d="M615 1052 c-23 -30 -44 -64 -45 -73 0 -11 63 -69 76 -69 6 0 15 8 18 18 3 9 13 28 21 42 12 20 12 27 2 35 -7 6 -21 24 -32 41 l-20 32 -20 -26z"/>
 <path d="M894 986 c-43 -20 -131 -102 -120 -113 2 -2 31 2 65 10 73 17 136 58 150 98 9 27 8 29 -17 29 -15 0 -50 -11 -78 -24z"/>
 <path d="M1123 948 c-7 -13 -15 -31 -19 -40 -3 -10 -11 -18 -16 -18 -6 0 4 -16 21 -35 17 -20 31 -41 31 -47 0 -6 11 1 25 16 14 15 25 33 25 40 0 6 5 17 12 24 9 9 4 20 -22 47 -19 19 -36 35 -40 35 -3 0 -11 -10 -17 -22z"/>
 <path d="M515 807 c-12 -63 -3 -89 40 -113 60 -34 65 -32 65 30 0 52 -2 55 -37 77 -21 13 -43 27 -50 32 -8 5 -14 -3 -18 -26z"/>
 <path d="M978 793 c-34 -9 -34 -81 0 -85 49 -4 72 9 72 42 0 32 -34 53 -72 43z"/>
 <path d="M740 725 c0 -12 5 -36 11 -54 10 -29 14 -31 63 -31 29 0 55 3 59 6 3 4 0 19 -8 35 -8 15 -15 37 -15 48 0 18 -6 20 -55 19 -49 -1 -55 -4 -55 -23z"/>
 </g>
<g id="layer112" fill="#b1d4ff" stroke="none">
 <path d="M975 1198 c-9 -29 -18 -59 -20 -65 -7 -21 84 -17 92 3 3 9 0 20 -7 24 -7 4 -10 15 -7 24 4 9 2 16 -4 16 -6 0 -9 6 -7 12 4 12 -14 38 -25 38 -3 0 -13 -24 -22 -52z"/>
 <path d="M770 1178 c0 -6 -3 -9 -6 -5 -3 3 -11 1 -18 -5 -14 -13 -12 -84 3 -80 6 1 11 -2 11 -7 0 -14 34 -7 46 9 14 18 24 81 12 74 -4 -3 -11 2 -14 10 -7 18 -34 22 -34 4z"/>
 <path d="M1183 1161 c-23 -20 -31 -51 -13 -51 6 0 10 -6 10 -13 0 -15 21 -19 58 -11 44 9 22 96 -25 94 -4 -1 -18 -9 -30 -19z"/>
 <path d="M817 941 c-39 -41 -38 -51 11 -65 14 -5 22 -3 22 4 0 7 8 10 20 7 11 -3 20 -1 20 4 0 5 3 8 8 8 22 -4 22 3 -2 22 -14 11 -26 27 -26 34 0 28 -17 23 -53 -14z"/>
 <path d="M1131 971 c-7 -5 -11 -13 -7 -19 3 -6 -3 -17 -14 -25 -18 -12 -19 -16 -6 -26 20 -17 87 -24 106 -12 12 8 7 17 -25 50 -28 28 -44 38 -54 32z"/>
 <path d="M990 799 c0 -6 -7 -9 -15 -5 -9 3 -15 0 -15 -9 0 -8 -4 -15 -10 -15 -5 0 -10 -9 -10 -20 0 -11 5 -20 10 -20 6 0 10 -7 10 -16 0 -8 5 -12 11 -8 6 3 15 0 20 -7 8 -12 10 -12 18 0 5 7 14 10 20 7 6 -4 11 0 11 8 0 9 5 16 10 16 6 0 10 9 10 20 0 11 -4 20 -10 20 -5 0 -10 7 -10 15 0 9 -6 12 -15 9 -8 -4 -15 -1 -15 5 0 6 -4 11 -10 11 -5 0 -10 -5 -10 -11z"/>
 </g>
<g id="layer113" fill="#c7deff" stroke="none">
 <path d="M918 1953 c39 -2 105 -2 145 0 39 1 7 3 -73 3 -80 0 -112 -2 -72 -3z"/>
 <path d="M785 1940 l-20 -9 20 0 c11 0 29 4 40 9 l20 9 -20 0 c-11 0 -29 -4 -40 -9z"/>
 <path d="M1175 1941 c11 -5 38 -11 60 -14 l40 -6 -40 14 c-22 7 -49 14 -60 14 l-20 0 20 -8z"/>
 <path d="M1290 1917 c0 -3 15 -10 32 -16 18 -6 28 -7 23 -2 -12 10 -55 25 -55 18z"/>
 <path d="M570 1859 c-17 -13 -18 -17 -5 -10 33 17 51 31 40 31 -5 0 -21 -10 -35 -21z"/>
 <path d="M1391 1877 c2 -2 18 -11 34 -21 l30 -17 -24 20 c-13 12 -28 21 -34 21 -6 0 -8 -1 -6 -3z"/>
 <path d="M1535 1795 c11 -9 30 -25 43 -35 12 -11 22 -16 22 -12 0 5 -12 17 -27 28 -36 26 -64 40 -38 19z"/>
 <path d="M1630 1717 c0 -2 21 -23 47 -48 45 -43 51 -38 9 9 -20 21 -56 47 -56 39z"/>
 <path d="M312 1673 c-7 -2 -17 -14 -23 -26 -9 -19 -8 -20 3 -7 8 8 20 21 28 28 15 13 13 14 -8 5z"/>
 <path d="M969 1213 c-6 -16 -13 -40 -16 -55 -5 -27 -4 -28 41 -28 42 0 46 2 46 24 0 75 -49 115 -71 59z"/>
 <path d="M56 1199 c-8 -42 0 -50 9 -9 4 17 5 34 2 36 -2 3 -7 -10 -11 -27z"/>
 <path d="M1932 1215 c0 -11 3 -29 8 -40 11 -25 11 1 0 35 -6 20 -8 21 -8 5z"/>
 <path d="M1188 1176 c-11 -8 -18 -27 -18 -48 0 -44 35 -68 75 -50 34 16 36 73 3 96 -27 19 -38 19 -60 2z"/>
 <path d="M746 1164 c-41 -41 5 -107 58 -83 20 9 26 19 26 44 0 17 -5 36 -12 43 -17 17 -54 15 -72 -4z"/>
 <path d="M1954 1000 c0 -74 1 -105 3 -67 2 37 2 97 0 135 -2 37 -3 6 -3 -68z"/>
 <path d="M44 990 c0 -69 1 -97 3 -62 2 34 2 90 0 125 -2 34 -3 6 -3 -63z"/>
 <path d="M821 938 c-35 -35 -39 -44 -28 -55 10 -11 23 -12 56 -4 57 12 69 25 48 49 -9 10 -17 24 -17 30 0 25 -19 19 -59 -20z"/>
 <path d="M1130 970 c0 -7 -9 -23 -20 -37 -27 -34 -25 -39 11 -52 67 -23 102 -8 79 32 -15 28 -70 72 -70 57z"/>
 <path d="M51 830 c0 -8 4 -24 9 -35 5 -13 9 -14 9 -5 0 8 -4 24 -9 35 -5 13 -9 14 -9 5z"/>
 <path d="M1935 810 c-4 -17 -5 -34 -2 -36 2 -3 7 10 11 27 8 42 0 50 -9 9z"/>
 <path d="M963 793 c-7 -2 -13 -22 -13 -44 0 -33 4 -40 25 -45 14 -3 36 -3 50 0 21 5 25 12 25 45 0 26 -5 41 -16 45 -18 7 -53 7 -71 -1z"/>
 <path d="M1670 323 c-25 -26 -36 -40 -25 -32 22 16 44 38 64 62 26 33 5 16 -39 -30z"/>
 <path d="M315 321 c11 -13 29 -28 40 -33 20 -11 20 -11 0 11 -11 13 -29 28 -40 33 -20 11 -20 11 0 -11z"/>
 <path d="M785 60 c11 -5 29 -9 40 -9 l20 0 -20 9 c-11 5 -29 9 -40 9 l-20 0 20 -9z"/>
 <path d="M1175 60 c-25 -11 1 -11 35 0 20 6 21 8 5 8 -11 0 -29 -3 -40 -8z"/>
 <path d="M938 43 c34 -2 88 -2 120 0 31 2 3 3 -63 3 -66 0 -92 -1 -57 -3z"/>
 </g>

</svg>